<svg width="20" height="18" viewBox="0 0 20 18" fill="none" xmlns="http://www.w3.org/2000/svg">
<path d="M14.9399 0C16.2809 0 17.5709 0.53 18.5199 1.481C19.4699 2.43 20.0009 3.71 20.0009 5.05V12.95C20.0009 15.74 17.7309 18 14.9399 18H5.06085C2.26985 18 0.000854492 15.74 0.000854492 12.95V5.05C0.000854492 2.26 2.25985 0 5.06085 0H14.9399ZM16.0709 5.2C15.8609 5.189 15.6609 5.26 15.5099 5.4L11.0009 9C10.4209 9.481 9.58985 9.481 9.00085 9L4.50085 5.4C4.18985 5.17 3.75985 5.2 3.50085 5.47C3.23085 5.74 3.20085 6.17 3.42985 6.47L3.56085 6.6L8.11085 10.15C8.67085 10.59 9.34985 10.83 10.0609 10.83C10.7699 10.83 11.4609 10.59 12.0199 10.15L16.5309 6.54L16.6109 6.46C16.8499 6.17 16.8499 5.75 16.5999 5.46C16.4609 5.311 16.2699 5.22 16.0709 5.2Z" fill="white"/>
</svg>
