<svg width="20" height="20" viewBox="0 0 20 20" fill="none" xmlns="http://www.w3.org/2000/svg">
<path d="M6.27977 0.500155C6.90977 0.519314 7.51977 0.629314 8.11077 0.830314H8.16977C8.20977 0.849314 8.23977 0.870314 8.25977 0.889314C8.48077 0.960314 8.68977 1.04031 8.88977 1.15031L9.26977 1.32031C9.41977 1.40031 9.59977 1.54931 9.69977 1.61031C9.79977 1.66931 9.90977 1.73031 9.99977 1.79931C11.1108 0.950314 12.4598 0.490314 13.8498 0.500155C14.4808 0.500155 15.1108 0.589314 15.7098 0.790314C19.4008 1.99031 20.7308 6.04031 19.6198 9.58031C18.9898 11.3893 17.9598 13.0403 16.6108 14.3893C14.6798 16.2593 12.5608 17.9193 10.2798 19.3493L10.0298 19.5003L9.76977 19.3393C7.48077 17.9193 5.34977 16.2593 3.40077 14.3793C2.06077 13.0303 1.02977 11.3893 0.389772 9.58031C-0.740228 6.04031 0.589773 1.99031 4.32077 0.769314C4.61077 0.669314 4.90977 0.599314 5.20977 0.560314H5.32977C5.61077 0.519314 5.88977 0.500155 6.16977 0.500155H6.27977ZM15.1898 3.66031C14.7798 3.51931 14.3298 3.74031 14.1798 4.16031C14.0398 4.58031 14.2598 5.04031 14.6798 5.18931C15.3208 5.42931 15.7498 6.06031 15.7498 6.75931V6.79031C15.7308 7.01931 15.7998 7.24031 15.9398 7.41031C16.0798 7.58031 16.2898 7.67931 16.5098 7.70031C16.9198 7.68931 17.2698 7.36031 17.2998 6.93931V6.82031C17.3298 5.41931 16.4808 4.15031 15.1898 3.66031Z" fill="#3B4144"/>
</svg>
